<svg width="28" height="30" viewBox="0 0 28 30" fill="none" xmlns="http://www.w3.org/2000/svg">
<path d="M4.96811 12.9697H0V21.999H4.96811V12.9697Z" fill="#00C4A6"/>
<mask id="mask0_3891_10420" style="mask-type:luminance" maskUnits="userSpaceOnUse" x="4" y="8" width="15" height="14">
<path d="M4.9707 12.9696C7.36461 12.9722 9.65972 13.9243 11.3525 15.6171C13.0452 17.3098 13.9974 19.6049 14 21.9988H18.9681C18.9681 20.1607 18.606 18.3405 17.9026 16.6423C17.1992 14.944 16.1681 13.401 14.8683 12.1012C13.5686 10.8014 12.0255 9.77038 10.3273 9.06695C8.62902 8.36352 6.80886 8.00146 4.9707 8.00146V12.9696Z" fill="white"/>
</mask>
<g mask="url(#mask0_3891_10420)">
<path d="M18.9681 8.00244H4.9707V21.9998H18.9681V8.00244Z" fill="url(#paint0_linear_3891_10420)"/>
</g>
<path d="M28.0003 8.00147V12.9696C25.6064 12.9722 23.3113 13.9243 21.6186 15.6171C19.9258 17.3098 18.9737 19.6049 18.9711 21.9988H13.998C13.998 20.1603 14.3603 18.3397 15.064 16.6411C15.7677 14.9426 16.7992 13.3993 18.0995 12.0995C19.3998 10.7996 20.9435 9.76868 22.6423 9.06554C24.3411 8.3624 26.1618 8.00082 28.0003 8.00147Z" fill="#00C4A6"/>
<defs>
<linearGradient id="paint0_linear_3891_10420" x1="5.00707" y1="15.2297" x2="18.9888" y2="15.2297" gradientUnits="userSpaceOnUse">
<stop stop-color="#00C4A6"/>
<stop offset="0.11" stop-color="#0FC7A1"/>
<stop offset="0.31" stop-color="#38CE94"/>
<stop offset="0.6" stop-color="#78DB7F"/>
<stop offset="0.95" stop-color="#D1EB63"/>
<stop offset="1" stop-color="#DFEE5E"/>
</linearGradient>
</defs>
</svg>
