<svg width="18" height="30" viewBox="0 0 18 30" fill="none" xmlns="http://www.w3.org/2000/svg">
<path d="M14.4788 6.78857C13.4618 6.78857 10.0684 9.28243 10.0684 9.28243C10.0684 9.28243 13.4618 11.7771 14.4788 11.7771C15.8964 11.7771 17.0781 10.8184 17.0781 9.28243C17.0781 7.74645 15.8964 6.78857 14.4788 6.78857Z" fill="#38D200"/>
<path d="M2.94064 29.0003C3.95772 29.0003 7.35112 26.5064 7.35112 26.5064C7.35112 26.5064 3.96074 24.0117 2.94064 24.0117C1.52305 24.0117 0.341797 24.9705 0.341797 26.5064C0.341797 28.0424 1.52521 29.0003 2.94064 29.0003Z" fill="#0473EA"/>
<path d="M15.3643 15.1739L6.58054 9.33459L11.6564 5.78002C12.8286 4.9591 13.1928 3.33844 12.3909 2.15071C12.0068 1.57838 11.411 1.18207 10.7347 1.04895C10.0584 0.915823 9.35688 1.05678 8.78448 1.44083L8.74387 1.46848L2.67946 5.75496C2.10703 6.15935 1.6418 6.69719 1.32406 7.32189C1.00632 7.94659 0.845636 8.63933 0.855934 9.34011C0.866233 10.0409 1.0472 10.7286 1.38316 11.3437C1.71912 11.9588 2.19996 12.4827 2.78402 12.8701L16.5123 21.9689C18.0734 19.5649 17.7709 16.7354 15.3643 15.1739Z" fill="#0473EA"/>
<path d="M1.32965 14.3843L16.4686 24.1173C17.0471 24.4899 17.4539 25.077 17.5997 25.7494C17.7456 26.4218 17.6185 27.1247 17.2463 27.7034C16.8737 28.2819 16.2867 28.6887 15.6143 28.8345C14.9418 28.9804 14.239 28.8533 13.6602 28.4811L2.88896 21.5578C1.73134 20.8133 0.916786 19.6395 0.62438 18.2945C0.331974 16.9496 0.585656 15.5435 1.32965 14.3856V14.3843Z" fill="#38D200"/>
</svg>
