<svg width="28" height="30" viewBox="0 0 28 30" fill="none" xmlns="http://www.w3.org/2000/svg">
<path d="M27.9993 1.00049H0V28.9998H27.9993V1.00049Z" fill="#0091D0"/>
<path d="M0 1.00049L6.99835 8.00476L13.9967 1.00049H0Z" fill="#0091D0"/>
<path d="M0 1.00049V14.9972L6.99835 8.00476L0 1.00049Z" fill="#009CD8"/>
<path d="M13.9967 14.9974L7.00427 7.99902L0 14.9974H13.9967Z" fill="#0091D0"/>
<path d="M13.9963 14.9972V1.00049L7.00391 7.99884L13.9963 14.9972Z" fill="#0082C9"/>
<path d="M13.9961 1.00049V14.9972L20.9944 8.00476L13.9961 1.00049Z" fill="#0070BB"/>
<path d="M28.0006 14.9974L21.0023 7.99902L14.0039 14.9974H28.0006Z" fill="#004C98"/>
<path d="M0 15.0029L6.99835 22.0013L13.9967 15.0029H0Z" fill="#0082C9"/>
<path d="M0 15.0029V28.9996L6.99835 22.0013L0 15.0029Z" fill="#0070BB"/>
<path d="M13.9967 28.9999L7.00427 21.9956L0 28.9999H13.9967Z" fill="#0060AF"/>
<path d="M13.9963 28.9996V15.0029L7.00391 21.9954L13.9963 28.9996Z" fill="#00529C"/>
<path d="M13.9961 15.0029L20.9944 22.0013L27.9987 15.0029H13.9961Z" fill="#1C378A"/>
<path d="M13.9961 15.0029V28.9996L20.9944 22.0013L13.9961 15.0029Z" fill="#004C98"/>
<path d="M28.0006 28.9999L21.0023 21.9956L14.0039 28.9999H28.0006Z" fill="#1C378A"/>
<path d="M27.9984 28.9996V15.0029L21 21.9954L27.9984 28.9996Z" fill="#1C378A"/>
<path d="M13.9961 1.00049L20.9944 8.00476L27.9987 1.00049H13.9961Z" fill="#0060AF"/>
<path d="M27.9984 14.9972V1.00049L21 7.99884L27.9984 14.9972Z" fill="#00529C"/>
<path d="M27.9977 18.5026L19.0337 9.96484L5.42773 23.6004L10.3893 28.5679L19.0337 20.0538L27.9977 28.9705V18.5026Z" fill="white"/>
</svg>
