<svg width="37" height="26" viewBox="0 0 37 26" fill="none" xmlns="http://www.w3.org/2000/svg">
<g clip-path="url(#clip0_3891_13147)">
<path d="M35.9752 13.3277L35.6611 13.1369C34.5949 12.1046 33.1086 11.6562 31.1295 11.7668C29.4802 11.8661 28.1706 12.5015 27.1713 13.1025C27.1713 13.0872 27.1713 13.072 27.1713 13.0567C27.1826 12.5298 27.2212 12.0038 27.2871 11.4806C27.355 10.9487 27.3943 10.4137 27.4049 9.87781C27.4229 9.38119 27.3381 8.88612 27.1555 8.42193C27.1332 8.36749 27.094 8.32117 27.0433 8.28937C26.9926 8.25758 26.9331 8.24189 26.8728 8.24448C26.3388 8.25592 25.3021 8.61083 25.0449 8.82645L24.9074 9.11839C24.9074 9.69082 24.77 11.2955 24.6384 11.4902L24.5678 11.681C24.3446 13.6846 24.3373 15.7055 24.5462 17.7106C24.5697 17.8823 24.9114 18.1437 25.1764 18.2372C25.4415 18.3307 26.3721 18.1056 26.8944 17.9128L27.0908 17.8842C27.1304 17.8789 27.1685 17.8659 27.2029 17.846C27.2373 17.8261 27.2673 17.7998 27.2911 17.7685C27.3149 17.7372 27.332 17.7016 27.3414 17.6638C27.3508 17.626 27.3524 17.5868 27.346 17.5484L27.3558 17.0504C27.7348 15.5582 29.2643 13.7818 31.0706 13.5128C32.0935 13.3563 32.9005 13.6082 33.5366 14.276C33.623 14.3962 33.8096 15.4686 33.144 16.7031C32.6413 17.6171 31.64 18.3842 30.3206 18.8669C29.0718 19.3268 27.6974 19.5137 26.0011 19.4546L24.4048 18.4109C23.0618 17.4931 21.391 16.3501 19.8732 15.791C19.6082 15.6937 19.1291 15.3083 18.8444 15.0774L18.6873 14.9534C17.8136 14.2703 16.1506 13.1941 14.8135 12.3297L14.093 11.8603V11.7134C14.1303 11.6733 14.9686 11.1849 14.9686 11.1849C16.1467 10.517 16.6866 10.1888 16.8025 10.019C16.7789 10.0457 16.9595 9.92933 16.9595 9.92933L19.8713 8.32843C22.6652 6.83439 25.8342 5.13999 27.4991 3.46658L27.5796 3.21089L27.615 2.98383C27.7244 2.67595 27.7333 2.34276 27.6405 2.02977C27.6259 1.97763 27.5973 1.93019 27.5576 1.89231C27.5179 1.85443 27.4686 1.82746 27.4147 1.81416C26.1169 1.69013 24.4401 2.44574 22.9146 3.83484C22.6342 4.08714 22.3182 4.29918 21.9761 4.46452L21.7424 4.59045C20.0617 5.5197 16.2723 7.8037 14.2814 9.03825C14.4697 6.52875 14.8073 4.03195 15.2926 1.56038L15.2376 1.26653L15.0413 0.884911L14.8862 0.619684L14.841 0.608236C14.6936 0.537074 14.533 0.495499 14.3687 0.485992C14.2044 0.476485 14.0399 0.499241 13.8848 0.552902L13.4921 0.692193L12.966 0.883004C12.915 0.892667 12.8677 0.915488 12.829 0.949067C12.7903 0.982645 12.7617 1.02574 12.746 1.07381C11.7997 3.29867 11.0104 6.96223 10.8337 9.88545C9.37673 8.99712 7.86902 8.18996 6.31783 7.46788L6.29231 7.45452L6.18825 7.43353C5.88195 7.39346 5.50498 7.17403 5.14175 6.96032L4.42314 6.5081L3.32952 5.81736C3.3413 5.81736 3.04089 5.7544 3.04089 5.7544C2.56771 5.83263 1.6665 6.42605 1.39359 6.82675C1.35952 6.87847 1.34241 6.93902 1.3445 7.00039C1.34913 7.08611 1.36564 7.17083 1.39359 7.25226L1.44268 7.46979L1.49372 7.60145C2.01992 8.12617 3.34915 9.00199 4.65482 9.68509L6.16665 10.4636L8.47759 11.6981C8.47759 11.7077 8.87027 12.0015 8.87027 12.0015L9.14319 12.1542L9.19031 12.1828L4.9886 14.9152L2.78369 16.3406C2.37065 16.5619 1.94523 16.7606 1.50943 16.9359C1.08871 17.075 0.734738 17.3587 0.513981 17.7335L0.455078 17.8575L0.515944 17.9396L0.682834 18.0636L0.912554 18.2086L1.15405 18.3708L1.38574 18.4051C1.77842 18.4204 2.35174 18.2048 3.42965 17.7468C4.41136 17.3194 7.10712 15.7452 8.25572 15.0755L8.74658 14.7893C8.94292 14.8045 9.17264 14.6385 9.37094 14.4916C9.69553 14.2563 10.0435 14.053 10.4096 13.8848C10.4096 13.8848 10.5941 13.7875 10.7551 13.694C10.7551 13.7455 10.7551 13.8238 10.7551 13.8238C10.8062 17.2393 11.0104 19.7217 11.3933 21.6356V21.6718L11.4306 21.7481C11.6269 22.0191 11.835 22.8281 12.0196 23.5418L12.4574 24.9671C12.4574 24.9843 12.5831 25.1026 12.5831 25.1026C12.8324 25.2648 13.5923 25.5491 14.1028 25.4842L14.2284 25.4689L14.3089 25.2953C14.3507 25.0802 14.3705 24.8616 14.3678 24.6427C14.3678 24.3813 14.3482 24.0932 14.3227 23.7421L14.2893 23.2269C14.1283 20.8513 13.9751 17.4053 13.9751 15.1156C13.9751 15.0526 13.9751 14.9954 13.9751 14.9248C14.3894 15.1804 16.2154 16.2967 16.2154 16.2967C19.3196 18.2525 24.0082 21.2101 26.8414 21.9924C26.912 22.0139 26.9872 22.0168 27.0594 22.0007C27.1315 21.9846 27.1979 21.9501 27.2518 21.9008L27.6896 21.6279L27.7681 21.5955C27.9331 21.5211 28.043 21.2539 28.0607 20.9639C30.4502 20.8494 33.7821 19.9545 35.5629 17.7774C36.2023 16.9889 36.5545 16.0164 36.5642 15.0125C36.5642 14.2894 36.3561 13.6616 35.9752 13.3181" fill="#F8B500"/>
</g>
<defs>
<clipPath id="clip0_3891_13147">
<rect width="36.1111" height="25" fill="white" transform="translate(0.445312 0.5)"/>
</clipPath>
</defs>
</svg>
