<svg width="32" height="30" viewBox="0 0 32 30" fill="none" xmlns="http://www.w3.org/2000/svg">
<path d="M8.05132 0.37095C7.6392 0.575537 7.27192 0.860109 6.9709 1.20808C6.66987 1.55605 6.44111 1.96046 6.29797 2.39773L0.694677 19.2277C0.401476 20.1092 0.470428 21.0711 0.886368 21.9019C1.30231 22.7326 2.03118 23.3641 2.91267 23.6574L21.2789 29.8238C22.1601 30.114 23.1203 30.0436 23.9497 29.628C24.7792 29.2124 25.4103 28.4854 25.7054 27.6058L31.3063 10.7759C31.5984 9.8945 31.5293 8.93327 31.1142 8.10266C30.6991 7.27206 29.9719 6.63977 29.0916 6.34422L10.7253 0.18309C10.2894 0.0356204 9.82853 -0.0237142 9.36947 0.00853642C8.91041 0.040787 8.46234 0.163979 8.05132 0.37095Z" fill="white"/>
<path d="M12.9427 2.21223C16.1559 3.40344 18.5015 6.83559 18.2735 10.5775C18.1928 11.9723 17.764 13.3246 17.0264 14.5111C16.0148 13.3782 14.7491 12.5012 13.3332 11.9518L12.5125 11.6296V19.4356L13.3452 19.1124C14.7585 18.5577 16.02 17.6755 17.0259 16.5383C18.0105 18.1167 18.4459 19.9762 18.2644 21.8276C18.0828 23.679 17.2945 25.4185 16.0221 26.7755L16.0302 26.7693L16.0221 26.7788L3.27867 22.5173C2.70138 22.3274 2.22271 21.9168 1.94721 21.3751C1.6717 20.8334 1.62177 20.2047 1.8083 19.6263L7.42593 2.78489C7.60963 2.21346 8.01274 1.73838 8.54662 1.46408C9.08051 1.18979 9.70147 1.13874 10.273 1.32216L10.2912 1.32838L12.9427 2.21223Z" fill="#0092D8"/>
<path d="M9.65358 19.9074H8.39258V11.1631H9.65358V19.9074Z" fill="white"/>
<path d="M16.2892 15.5238C15.5794 14.6775 14.7091 13.98 13.7285 13.4717V17.5826C14.7085 17.0704 15.5785 16.3709 16.2892 15.5238Z" fill="#E43D30"/>
<path d="M28.6862 7.46398L16.9844 3.55908C18.4557 5.16365 19.3404 7.2191 19.4944 9.39065C19.6483 11.5622 19.0625 13.7219 17.8324 15.5181C19.0325 17.2554 19.6283 19.3391 19.5279 21.4483C19.4275 23.5575 18.6366 25.5752 17.2769 27.1907L21.6699 28.6577C21.9534 28.7509 22.2526 28.7873 22.5502 28.7648C22.8479 28.7423 23.1382 28.6613 23.4045 28.5266C23.6709 28.3919 23.9081 28.206 24.1025 27.9796C24.297 27.7531 24.445 27.4906 24.538 27.2069V27.2007L30.1556 10.3603C30.3422 9.7813 30.2925 9.15204 30.0173 8.60956C29.742 8.06708 29.2636 7.65533 28.6862 7.46398ZM25.5791 19.8814H24.0016L20.7511 15.5181L24.0552 11.1442H25.6565L22.341 15.5181L25.5791 19.8814Z" fill="#004B9D"/>
</svg>
