<svg width="26" height="30" viewBox="0 0 26 30" fill="none" xmlns="http://www.w3.org/2000/svg">
<g clip-path="url(#clip0_3891_13119)">
<path d="M18.9813 0L12.9991 2.97199L7.02539 0L12.9991 11.2484L18.9813 0Z" fill="#FDB913"/>
<path d="M21.0724 8.69052L20.9794 8.61529L25.2464 6.84295V0.928223L17.8574 4.03397C17.8574 4.03397 13.8397 11.558 13.751 11.7294C15.3304 11.9138 16.779 12.6884 17.8003 13.8948C18.8215 15.1011 19.3384 16.6479 19.245 18.2188C19.1516 19.7897 18.4551 21.2659 17.298 22.3455C16.1408 23.425 14.6105 24.0263 13.0201 24.0263C11.4297 24.0263 9.89935 23.425 8.74221 22.3455C7.58507 21.2659 6.88858 19.7897 6.79521 18.2188C6.70184 16.6479 7.21866 15.1011 8.23994 13.8948C9.26122 12.6884 10.7098 11.9138 12.2892 11.7294L8.19127 4.03397L0.764265 0.928223V6.86386L5.02698 8.63618L4.93404 8.71142C3.05162 10.3367 1.71535 12.4917 1.10381 14.8884C0.492277 17.2852 0.63459 19.8095 1.51175 22.124C2.3889 24.4386 3.95912 26.4332 6.01256 27.8412C8.06599 29.2493 10.5048 30.0037 13.0032 30.0037C15.5015 30.0037 17.9404 29.2493 19.9938 27.8412C22.0473 26.4332 23.6175 24.4386 24.4946 22.124C25.3718 19.8095 25.5141 17.2852 24.9026 14.8884C24.291 12.4917 22.9548 10.3367 21.0724 8.71142V8.69052Z" fill="#FDB913"/>
</g>
<defs>
<clipPath id="clip0_3891_13119">
<rect width="24.5455" height="30" fill="white" transform="translate(0.726562)"/>
</clipPath>
</defs>
</svg>
