<svg width="28" height="10" viewBox="0 0 28 10" fill="none" xmlns="http://www.w3.org/2000/svg">
<path d="M6.51618 5.00085C7.16472 4.73009 7.703 4.12208 7.703 3.11685C7.703 1.62035 6.4189 0.712402 4.87052 0.712402H0.084326C0.0619657 0.712402 0.0405206 0.721286 0.0247095 0.737097C0.00889838 0.752909 1.55931e-05 0.77435 1.55931e-05 0.79671V2.15702C-0.000199974 2.16822 0.00182144 2.17936 0.00596178 2.18978C0.0101021 2.20019 0.0162789 2.20968 0.0241294 2.21768C0.0319798 2.22569 0.0413471 2.23204 0.0516832 2.23638C0.0620192 2.24072 0.0731165 2.24295 0.084326 2.24295H4.53977C5.25802 2.24295 5.74443 2.68233 5.74443 3.21575C5.74443 3.74917 5.25802 4.19666 4.53977 4.19666H1.89212V3.18981C1.89234 3.17846 1.89027 3.16719 1.88603 3.15667C1.88179 3.14614 1.87547 3.13658 1.86744 3.12855C1.85942 3.12053 1.84986 3.11421 1.83933 3.10997C1.82881 3.10573 1.81753 3.10366 1.80619 3.10388H0.084326C0.0731165 3.10388 0.0620192 3.10611 0.0516832 3.11045C0.0413471 3.11479 0.0319798 3.12114 0.0241294 3.12914C0.0162789 3.13714 0.0101021 3.14663 0.00596178 3.15705C0.00182144 3.16747 -0.000199974 3.1786 1.55931e-05 3.18981V9.20012C1.55931e-05 9.22248 0.00889838 9.24392 0.0247095 9.25973C0.0405206 9.27554 0.0619657 9.28443 0.084326 9.28443H4.80242C6.56644 9.28443 7.82947 8.46241 7.82947 6.78432C7.83308 6.38496 7.70701 5.99521 7.47019 5.67361C7.23338 5.35202 6.89862 5.11594 6.51618 5.00085ZM4.63219 7.79441H1.89212V5.78395H4.63219C5.36827 5.78395 5.86765 6.23469 5.86765 6.78919C5.86765 7.34369 5.36827 7.79441 4.63219 7.79441Z" fill="#D7191F"/>
<path d="M26.31 2.24296H27.0315C27.0543 2.24296 27.0761 2.23391 27.0922 2.21779C27.1083 2.20168 27.1174 2.17982 27.1174 2.15703V0.796726C27.1174 0.785516 27.1152 0.77442 27.1108 0.764084C27.1065 0.753748 27.1001 0.74438 27.0921 0.736529C27.0841 0.728679 27.0746 0.722506 27.0642 0.718365C27.0538 0.714225 27.0427 0.712202 27.0315 0.712418H26.0181C24.8459 0.712418 24.2249 1.08695 23.8699 1.88303L21.6665 7.28047C21.6221 7.42921 21.5276 7.55799 21.399 7.6449C21.2704 7.73181 21.1157 7.77148 20.9612 7.75714V0.796726C20.9612 0.785516 20.9589 0.77442 20.9546 0.764084C20.9503 0.753748 20.9439 0.74438 20.9359 0.736529C20.9279 0.728679 20.9184 0.722506 20.908 0.718365C20.8976 0.714225 20.8864 0.712202 20.8752 0.712418H19.2539C19.2427 0.712202 19.2316 0.714225 19.2211 0.718365C19.2107 0.722506 19.2012 0.728679 19.1932 0.736529C19.1852 0.74438 19.1789 0.753748 19.1745 0.764084C19.1702 0.77442 19.168 0.785516 19.168 0.796726V9.13852C19.1684 9.17823 19.1845 9.21617 19.2127 9.2441C19.2409 9.27203 19.279 9.28769 19.3188 9.28768H21.1363C22.3069 9.28768 22.8435 8.91316 23.197 8.11708L25.3728 2.78611C25.5479 2.40834 25.7992 2.24296 26.31 2.24296Z" fill="#D7191F"/>
<path d="M27.9854 9.18878L25.2081 5.63804C25.2069 5.63601 25.2053 5.63433 25.2033 5.63315C25.2013 5.63197 25.199 5.63135 25.1967 5.63135C25.1944 5.63135 25.1921 5.63197 25.1901 5.63315C25.1881 5.63433 25.1865 5.63601 25.1854 5.63804L24.4379 7.46691C24.4351 7.47214 24.4336 7.47799 24.4336 7.48393C24.4336 7.48988 24.4351 7.49573 24.4379 7.50096L25.6523 9.1223C25.6874 9.17536 25.7358 9.21827 25.7928 9.24672C25.8497 9.27518 25.9131 9.28818 25.9766 9.28443H27.9319C27.9437 9.28632 27.9558 9.28454 27.9666 9.27933C27.9773 9.27412 27.9862 9.26573 27.9921 9.25529C27.9979 9.24486 28.0004 9.23288 27.9992 9.22099C27.998 9.20909 27.9932 9.19785 27.9854 9.18878Z" fill="#D7191F"/>
<path d="M10.8674 3.10693H9.24609C9.2233 3.10693 9.20144 3.11599 9.18532 3.1321C9.16921 3.14822 9.16016 3.17007 9.16016 3.19286V9.20317C9.16015 9.21438 9.16239 9.22548 9.16672 9.23582C9.17106 9.24615 9.17742 9.25552 9.18542 9.26337C9.19342 9.27122 9.20291 9.2774 9.21332 9.28154C9.22374 9.28568 9.23488 9.2877 9.24609 9.28748H10.8674C10.8899 9.28749 10.9116 9.27866 10.9276 9.26289C10.9437 9.24712 10.9529 9.22568 10.9534 9.20317V3.18962C10.9525 3.1674 10.9431 3.14637 10.9271 3.13095C10.911 3.11553 10.8897 3.10692 10.8674 3.10693Z" fill="#D7191F"/>
<path d="M17.5396 0.712418H15.9182C15.9072 0.712418 15.8962 0.714598 15.886 0.718835C15.8757 0.723072 15.8664 0.729284 15.8586 0.737113C15.8508 0.744942 15.8446 0.754236 15.8403 0.764465C15.8361 0.774694 15.8339 0.785654 15.8339 0.796726V7.75714C15.6794 7.77148 15.5246 7.73181 15.3961 7.6449C15.2675 7.55799 15.173 7.42921 15.1286 7.28047L12.922 1.88303C12.5685 1.08695 11.9492 0.712418 10.7753 0.712418H9.24804C9.23683 0.712202 9.22569 0.714225 9.21528 0.718365C9.20486 0.722506 9.19537 0.728679 9.18737 0.736529C9.17937 0.74438 9.17302 0.753748 9.16868 0.764084C9.16434 0.77442 9.16211 0.785516 9.16211 0.796726V2.15703C9.16211 2.17982 9.17116 2.20168 9.18728 2.21779C9.20339 2.23391 9.22525 2.24296 9.24804 2.24296H10.4819C10.9942 2.24296 11.2439 2.4051 11.419 2.78611L13.5949 8.11708C13.9499 8.91316 14.485 9.28768 15.6572 9.28768H17.4731C17.5128 9.28769 17.5509 9.27203 17.5792 9.2441C17.6074 9.21617 17.6235 9.17823 17.6239 9.13852V0.796726C17.6239 0.774366 17.615 0.752924 17.5992 0.737113C17.5834 0.721302 17.5619 0.712418 17.5396 0.712418Z" fill="#D7191F"/>
</svg>
