<svg width="28" height="30" viewBox="0 0 28 30" fill="none" xmlns="http://www.w3.org/2000/svg">
<path d="M9.30254 22.0979C7.18018 22.0979 5.45988 20.3776 5.45988 18.2553C5.45988 17.2489 5.84646 16.3327 6.48046 15.6471C5.81811 14.4319 5.44183 13.0389 5.44183 11.5583C5.44183 11.3289 5.45085 11.1021 5.4689 10.8779C2.27828 12.039 0 15.0994 0 18.6908C0 23.2796 3.72153 27.0011 8.3103 27.0011C9.78061 27.0011 11.1607 26.6184 12.3591 25.9496V20.5851C11.6568 21.5052 10.5486 22.0992 9.30254 22.0992V22.0979Z" fill="url(#paint0_linear_3891_16524)"/>
<path d="M9.30406 14.4123C9.73832 14.4123 10.1545 14.4845 10.5437 14.6172C10.112 13.9626 9.85945 13.1791 9.85945 12.3363C9.85945 10.0478 11.7138 8.19344 14.0024 8.19344C15.6724 8.19344 17.1105 9.18052 17.7664 10.6032C18.385 10.4563 19.0293 10.3776 19.6929 10.3776C20.6916 10.3776 21.649 10.5542 22.5356 10.8763C22.189 6.46927 18.5009 2.99902 14.0011 2.99902C9.27571 2.99902 5.44336 6.83137 5.44336 11.558C5.44336 13.0386 5.81964 14.4316 6.48199 15.6468C7.18428 14.8878 8.18812 14.4123 9.30406 14.4123Z" fill="url(#paint1_linear_3891_16524)"/>
<path d="M19.6914 10.3789C19.0278 10.3789 18.3835 10.4575 17.7649 10.6044C18.0085 11.1315 18.1438 11.7191 18.1438 12.3376C18.1438 13.1804 17.8925 13.9638 17.4595 14.6172C17.8487 14.4844 18.2649 14.4136 18.6992 14.4136C20.8215 14.4136 22.5418 16.1339 22.5418 18.2562C22.5418 20.3786 20.8215 22.0989 18.6992 22.0989C17.4531 22.0989 16.3449 21.5061 15.6426 20.5861V25.9493C16.841 26.6194 18.2211 27.0008 19.6914 27.0008C24.2802 27.0008 28.0017 23.2793 28.0017 18.6905C28.0017 14.1017 24.2802 10.3789 19.6914 10.3789Z" fill="url(#paint2_linear_3891_16524)"/>
<defs>
<linearGradient id="paint0_linear_3891_16524" x1="7.42888" y1="27.0887" x2="4.56815" y2="10.8638" gradientUnits="userSpaceOnUse">
<stop offset="0.15" stop-color="#54C3F1"/>
<stop offset="0.3" stop-color="#4EBDED"/>
<stop offset="0.5" stop-color="#3FACE2"/>
<stop offset="0.73" stop-color="#2691D1"/>
<stop offset="0.97" stop-color="#036CB9"/>
<stop offset="1" stop-color="#0068B7"/>
</linearGradient>
<linearGradient id="paint1_linear_3891_16524" x1="4.88281" y1="11.5348" x2="20.9738" y2="5.67806" gradientUnits="userSpaceOnUse">
<stop offset="0.15" stop-color="#54C3F1"/>
<stop offset="0.3" stop-color="#4EBDED"/>
<stop offset="0.5" stop-color="#3FACE2"/>
<stop offset="0.73" stop-color="#2691D1"/>
<stop offset="0.97" stop-color="#036CB9"/>
<stop offset="1" stop-color="#0068B7"/>
</linearGradient>
<linearGradient id="paint2_linear_3891_16524" x1="23.3885" y1="11.1237" x2="20.538" y2="27.2946" gradientUnits="userSpaceOnUse">
<stop offset="0.15" stop-color="#54C3F1"/>
<stop offset="0.3" stop-color="#4EBDED"/>
<stop offset="0.5" stop-color="#3FACE2"/>
<stop offset="0.73" stop-color="#2691D1"/>
<stop offset="0.97" stop-color="#036CB9"/>
<stop offset="1" stop-color="#0068B7"/>
</linearGradient>
</defs>
</svg>
