<svg width="40" height="30" viewBox="0 0 40 30" fill="none" xmlns="http://www.w3.org/2000/svg">
<path d="M13.7461 14.9911C16.8941 17.0153 17.1992 18.827 16.5226 20.3202C16.2426 20.9437 15.6511 21.4868 15.6511 21.4868C15.6511 21.4868 18.323 20.198 19.1685 18.3137C20.1139 16.2091 19.0899 13.9805 16.2266 12.0487C13.8545 10.45 14.8401 8.93779 14.8401 8.93779C14.8401 8.93779 15.6221 6.94551 18.5429 6.94638C21.5294 6.94638 21.7497 8.95464 21.7497 8.95464L22.9163 6.64307C23.0796 6.27883 21.0152 5.25526 18.0473 5.25439C15.1252 5.25439 12.4304 6.42919 11.3801 8.76971C10.0959 11.6279 11.7257 13.694 13.7461 14.9911Z" fill="#1277BD"/>
<path d="M32.9525 18.2305C33.3625 17.0808 35.7013 11.301 31.677 11.3001C28.9304 11.3001 25.8225 13.4548 25.8225 13.4548L28.5497 7.10861C28.5497 7.10861 29.3045 5.58729 27.5594 5.58643H24.7475C24.7475 5.58643 25.7909 5.99819 24.8689 8.05225L20.8018 17.3158C20.8018 17.3158 18.4929 22.3248 13.849 22.3239C7.73692 22.3239 8.21004 16.1129 8.21004 16.1129L6 20.9901C6 20.9901 7.97585 24.7448 12.8081 24.7457C15.7302 24.7457 17.5838 23.5139 18.4842 22.5421C18.4842 22.5421 17.6119 24.5729 19.9265 24.5729H22.3028C22.3028 24.5729 21.6336 24.1062 21.6833 23.5147C21.7329 22.9232 22.528 21.0545 23.0659 20.0763C23.6038 19.0981 26.2688 14.3523 29.3745 14.0541C32.1743 13.7862 27.9552 22.5806 27.9552 22.5806C27.9552 22.5806 27.1403 24.4843 29.257 24.5405C31.3737 24.5966 31.763 24.5945 31.763 24.5945C31.763 24.5945 30.9667 23.9991 31.3599 22.9146C31.7531 21.8301 32.542 19.3811 32.9525 18.2305Z" fill="#1277BD"/>
</svg>
