<svg width="36" height="30" viewBox="0 0 36 30" fill="none" xmlns="http://www.w3.org/2000/svg">
<g clip-path="url(#clip0_3891_12143)">
<path d="M32.0578 17.6526C30.5225 21.4015 27.9489 22.4619 27.9489 22.4619C35.5193 14.9238 30.896 6.23821 30.896 6.23821C29.7786 4.29149 31.2015 3.44408 31.2015 3.44408C27.9505 4.24173 28.9666 6.88815 28.9666 6.88815C30.6001 10.7116 30.2708 13.8167 29.7169 15.7386L28.6453 15.1493L28.6612 15.1244C28.6612 15.1244 31.1999 5.29595 20.8455 1.84876L20.8376 0H18.6518V12.1794L28.8147 17.8703C28.6295 18.2404 28.4333 18.5871 28.2291 18.9168L18.0219 13.1077L7.77032 18.9152C7.56614 18.5871 7.36988 18.2388 7.1847 17.8688L17.346 12.1779V0H15.1618L15.1523 1.84876C4.7979 5.29595 7.33664 15.1244 7.33664 15.1244L7.35247 15.1493L6.28094 15.7386C5.72539 13.8167 5.39618 10.7116 7.03117 6.88815C7.03117 6.88815 8.0473 4.24173 4.79473 3.44408C4.79473 3.44408 6.21763 4.29149 5.1002 6.23821C5.1002 6.23821 0.476961 14.9238 8.0473 22.4619C8.0473 22.4619 5.47374 21.4015 3.93846 17.6526C3.93846 17.6526 3.06794 15.8241 0.628906 16.2221C0.628906 16.2221 1.54849 16.6311 2.08979 18.2886C2.08979 18.2886 4.28825 25.1565 12.7734 26.2045V29.9984H16.9408V24.4071C16.9408 24.4071 12.5202 24.3729 9.14574 20.7251L10.1919 20.1249C10.3882 20.3068 13.5965 23.2238 17.9728 23.3C17.9807 23.3 17.9886 23.3 17.9981 23.3C18.006 23.3 18.0155 23.3 18.0234 23.3C22.3998 23.2222 25.608 20.3053 25.8043 20.1234L26.8521 20.7235C23.4776 24.3713 19.057 24.4055 19.057 24.4055V29.9969H23.2244V26.203C31.7096 25.155 33.9064 18.287 33.9064 18.287C34.4462 16.6295 35.3673 16.2206 35.3673 16.2206C32.9283 15.821 32.0578 17.6511 32.0578 17.6511V17.6526ZM26.6289 14.0266L26.621 14.036L20.8867 10.8811L20.855 4.14222H20.8867C20.8867 4.14222 27.797 5.98943 26.6289 14.0251V14.0266ZM15.1112 4.14222H15.1428L15.1112 10.8811L9.37682 14.036L9.36891 14.0266C8.20083 5.98943 15.1112 4.14377 15.1112 4.14377V4.14222ZM18.0155 15.6531L23.7325 18.937V18.9463L23.6818 18.9183C21.6369 20.5043 19.6869 21.0283 17.9997 21.0299C16.3125 21.0299 14.3625 20.5043 12.3176 18.9183L12.2669 18.9463V18.937L18.0171 15.6531H18.0155Z" fill="#0056A7"/>
</g>
<defs>
<clipPath id="clip0_3891_12143">
<rect width="34.7368" height="30" fill="white" transform="translate(0.630859)"/>
</clipPath>
</defs>
</svg>
