<svg width="28" height="18" viewBox="0 0 28 18" fill="none" xmlns="http://www.w3.org/2000/svg">
<g clip-path="url(#clip0_3891_12775)">
<path fill-rule="evenodd" clip-rule="evenodd" d="M24.6116 5.05473C23.707 3.71804 22.5051 2.62691 21.1076 1.87362C19.7102 1.12033 18.1583 0.727051 16.5832 0.727051C15.0082 0.727051 13.4563 1.12033 12.0589 1.87362C10.6614 2.62691 9.45953 3.71804 8.55487 5.05473L8.46094 5.19483H10.7847L10.811 5.16578C11.5518 4.34852 12.4462 3.69721 13.4391 3.25199C14.432 2.80677 15.5023 2.57709 16.5841 2.57709C17.6658 2.57709 18.7362 2.80677 19.729 3.25199C20.7219 3.69721 21.6163 4.34852 22.3571 5.16578L22.3818 5.19483H24.7056L24.6116 5.05473Z" fill="#E60012"/>
<path d="M7.53882 14.0701L7.49597 14.1162C6.78072 14.8697 5.95506 15.2695 5.10468 15.2695C3.3281 15.2695 2.03769 13.8873 2.03769 11.9823C2.03769 10.0772 3.3281 8.68991 5.10468 8.68991C5.95506 8.68991 6.78072 9.0897 7.49597 9.84488L7.53882 9.89101L8.6809 8.45925L8.65123 8.41996C7.70032 7.25645 6.55989 6.69092 5.15906 6.69092C3.75824 6.69092 2.46618 7.18127 1.5334 8.05775C0.526453 9.01623 -0.00585938 10.3677 -0.00585938 11.9703C-0.00585938 13.5729 0.526453 14.9244 1.5334 15.8828C2.45959 16.7713 3.74505 17.2599 5.15906 17.2599C6.57307 17.2599 7.70032 16.6927 8.65123 15.5292L8.6809 15.4916L7.53882 14.0701Z" fill="#004187"/>
<path d="M11.8531 6.8623H9.83594V17.0776H11.8531V6.8623Z" fill="#004187"/>
<path d="M19.7611 14.854C19.321 15.1619 18.8081 15.3391 18.2779 15.3666C17.6187 15.3666 17.3303 15.0095 17.3303 14.215V8.79382H19.387V6.87002H17.3237V3.69043L15.346 4.78902V6.87002H13.6387V8.79382H15.346V14.5601C15.346 16.1303 16.2442 17.2049 17.5841 17.2323C18.2128 17.2642 18.8365 17.1013 19.3755 16.7641L19.3952 16.7488L19.8814 14.7805L19.7611 14.854Z" fill="#004187"/>
<path d="M23.4505 6.8623H21.4316V17.0776H23.4505V6.8623Z" fill="#004187"/>
<path d="M27.8275 5.59223C27.8275 5.77715 27.7746 5.9579 27.6755 6.11163C27.5764 6.26535 27.4355 6.38514 27.2707 6.45582C27.1059 6.52651 26.9245 6.54492 26.7496 6.50872C26.5747 6.47252 26.4141 6.38334 26.2881 6.25247C26.1621 6.12159 26.0763 5.95491 26.0417 5.77351C26.0071 5.59211 26.0252 5.40414 26.0937 5.2334C26.1622 5.06266 26.278 4.91682 26.4264 4.81434C26.5749 4.71185 26.7494 4.65733 26.9277 4.65766C27.0466 4.65534 27.1648 4.67794 27.2751 4.7241C27.3854 4.77027 27.4856 4.83904 27.5696 4.92632C27.6536 5.01359 27.7198 5.11756 27.7641 5.23199C27.8084 5.34642 27.83 5.46895 27.8275 5.59223ZM28.0006 5.59223C28.0009 5.37177 27.9381 5.15616 27.8202 4.97271C27.7022 4.78925 27.5344 4.64621 27.338 4.56168C27.1416 4.47716 26.9254 4.45496 26.7169 4.49788C26.5083 4.54081 26.3167 4.64694 26.1663 4.80283C26.0159 4.95873 25.9135 5.15737 25.8721 5.37362C25.8307 5.58987 25.8521 5.81399 25.9337 6.01761C26.0152 6.22123 26.1532 6.39519 26.3301 6.51746C26.5071 6.63974 26.7151 6.70483 26.9277 6.70449C27.0694 6.70727 27.2101 6.68041 27.3414 6.6255C27.4728 6.57059 27.5922 6.48876 27.6923 6.38492C27.7925 6.28107 27.8714 6.15735 27.9244 6.02115C27.9774 5.88495 28.0033 5.73906 28.0006 5.59223ZM27.4172 5.32912C27.4189 5.27793 27.41 5.22697 27.391 5.1797C27.372 5.13243 27.3433 5.08997 27.307 5.05525C27.2707 5.02053 27.2276 4.99435 27.1806 4.97851C27.1336 4.96267 27.0839 4.95755 27.0348 4.96349H26.5207V6.17655H26.7184V5.70841H26.9442L27.1733 6.17655H27.4089L27.1683 5.68621C27.2438 5.66668 27.3101 5.62013 27.3557 5.55479C27.4012 5.48944 27.423 5.40951 27.4172 5.32912ZM27.2161 5.32912C27.2161 5.45042 27.1354 5.49997 27.0283 5.49997H26.7184V5.15826H27.0283C27.0517 5.15482 27.0757 5.15668 27.0984 5.16371C27.1212 5.17074 27.1422 5.18277 27.16 5.199C27.1779 5.21522 27.1921 5.23524 27.2018 5.2577C27.2115 5.28016 27.2164 5.30452 27.2161 5.32912Z" fill="#004187"/>
</g>
<defs>
<clipPath id="clip0_3891_12775">
<rect width="28" height="16.5455" fill="white" transform="translate(0 0.727051)"/>
</clipPath>
</defs>
</svg>
