<svg width="30" height="30" viewBox="0 0 30 30" fill="none" xmlns="http://www.w3.org/2000/svg">
<path d="M30 15C30 17.9658 29.1209 20.865 27.4736 23.3312C25.8264 25.7975 23.4851 27.7201 20.7456 28.8561C18.006 29.9921 14.9912 30.2904 12.0821 29.7135C9.17297 29.1366 6.50019 27.7102 4.40149 25.6147C2.30279 23.5192 0.87238 20.8486 0.291024 17.9404C-0.290333 15.0322 0.00344214 12.0169 1.13526 9.27562C2.26707 6.53433 4.1861 4.19006 6.64983 2.53909C9.11357 0.888125 12.0114 0.00453492 14.9772 1.74034e-05C16.9489 -0.00298603 18.9019 0.382782 20.7244 1.13526C22.547 1.88774 24.2033 2.99217 25.5986 4.38535C26.9939 5.77853 28.1008 7.43311 28.856 9.25449C29.6113 11.0759 30 13.0283 30 15Z" fill="white"/>
<path d="M14.9792 29.303C17.8086 29.3053 20.5751 28.4684 22.9287 26.8981C25.2824 25.3278 27.1174 23.0948 28.2018 20.4814C29.2861 17.868 29.571 14.9918 29.0204 12.2165C28.4698 9.44122 27.1084 6.8916 25.1086 4.89012C23.1087 2.88865 20.5601 1.52527 17.7853 0.972456C15.0104 0.41964 12.134 0.702204 9.51974 1.78444C6.90552 2.86667 4.67099 4.69993 3.09884 7.05232C1.52668 9.40471 0.687505 12.1705 0.687505 14.9999C0.686004 16.8777 1.05457 18.7374 1.77212 20.4726C2.48968 22.2079 3.54215 23.7848 4.86941 25.1131C6.19666 26.4414 7.7727 27.4951 9.5074 28.2141C11.2421 28.933 13.1015 29.303 14.9792 29.303Z" fill="#0083CA"/>
<mask id="mask0_3891_11430" style="mask-type:luminance" maskUnits="userSpaceOnUse" x="0" y="0" width="30" height="30">
<path d="M14.9773 29.3031C17.8039 29.3031 20.5671 28.465 22.9173 26.8946C25.2676 25.3242 27.0994 23.0921 28.1811 20.4806C29.2628 17.8692 29.5458 14.9956 28.9944 12.2233C28.4429 9.45095 27.0818 6.9044 25.0831 4.90567C23.0843 2.90694 20.5378 1.5458 17.7655 0.994347C14.9931 0.442897 12.1195 0.725913 9.50806 1.80762C6.89659 2.88933 4.66456 4.72113 3.09416 7.07139C1.52377 9.42165 0.685547 12.1848 0.685547 15.0115C0.688572 18.8009 2.19528 22.4343 4.87484 25.1139C7.5544 27.7935 11.1878 29.3001 14.9773 29.3031Z" fill="white"/>
</mask>
<g mask="url(#mask0_3891_11430)">
<path d="M15.1393 21.8999C21.434 21.8999 26.8034 23.6592 29.1225 26.1383C29.8932 24.3094 30.2819 22.3422 30.265 20.3576C30.1565 16.4075 28.5112 12.6556 25.6789 9.89995C22.8466 7.14433 19.0509 5.60254 15.0993 5.60254C11.1477 5.60254 7.352 7.14433 4.51971 9.89995C1.68742 12.6556 0.0420201 16.4075 -0.0664062 20.3576C-0.0573094 22.3233 0.350803 24.2665 1.13316 26.0698C3.48655 23.6593 8.86738 21.8999 15.1393 21.8999Z" fill="#0083CA"/>
<path d="M15.1385 21.9116C21.4104 21.9116 26.7684 23.6595 29.0875 26.1157C29.8511 24.3086 30.2398 22.3653 30.2299 20.4035C30.2299 16.392 28.6363 12.5447 25.7997 9.70807C22.9631 6.87145 19.1158 5.27783 15.1042 5.27783C11.0926 5.27783 7.24534 6.87145 4.40872 9.70807C1.5721 12.5447 -0.0214844 16.392 -0.0214844 20.4035C-0.0198222 22.3699 0.388604 24.3147 1.17808 26.1157C3.55432 23.6595 8.87802 21.9116 15.1385 21.9116Z" fill="#0085CB"/>
<path d="M15.1382 21.9343C21.3872 21.9343 26.7452 23.6594 29.0414 26.1042C29.8148 24.3001 30.2039 22.3548 30.1839 20.3921C30.0757 16.463 28.4389 12.7311 25.6216 9.99022C22.8043 7.24936 19.0288 5.71582 15.0982 5.71582C11.1676 5.71582 7.39205 7.24936 4.57472 9.99022C1.7574 12.7311 0.120588 16.463 0.0124534 20.3921C-0.00756009 22.3548 0.381512 24.3001 1.15488 26.1042C3.55397 23.6594 8.88911 21.9343 15.1382 21.9343Z" fill="#0086CD"/>
<path d="M15.1372 21.946C21.3748 21.946 26.7099 23.6596 29.0062 26.0816C29.7712 24.299 30.1601 22.3778 30.1486 20.438C29.997 16.5491 28.3455 12.8699 25.5405 10.1721C22.7354 7.47421 18.9947 5.96729 15.1029 5.96729C11.211 5.96729 7.47033 7.47421 4.66528 10.1721C1.86024 12.8699 0.208747 16.5491 0.0571705 20.438C0.0402358 22.3746 0.429411 24.2932 1.19959 26.0701C3.55299 23.6596 8.91097 21.946 15.1372 21.946Z" fill="#0088CE"/>
<path d="M15.14 21.9684C21.3548 21.9684 26.6784 23.6591 28.9747 26.0696C29.7386 24.3028 30.1276 22.3967 30.1171 20.4718C29.9657 16.5918 28.318 12.9212 25.5193 10.2296C22.7207 7.53808 18.9886 6.03467 15.1057 6.03467C11.2228 6.03467 7.49072 7.53808 4.69209 10.2296C1.89345 12.9212 0.245656 16.5918 0.0942566 20.4718C0.0777045 22.3973 0.466964 24.3046 1.23668 26.0696C3.5558 23.6591 8.92521 21.9684 15.14 21.9684Z" fill="#008ACF"/>
<path d="M15.1294 21.98C21.3442 21.98 26.645 23.6594 28.9299 26.047C29.6999 24.2982 30.0893 22.4056 30.0723 20.4948C30.0723 12.6235 23.3663 6.146 15.0951 6.146C6.82397 6.146 0.129364 12.6235 0.129364 20.5063C0.113635 22.4132 0.503031 24.3018 1.27179 26.047C3.62518 23.6594 8.93746 21.98 15.1294 21.98Z" fill="#008CD0"/>
<path d="M15.1284 21.9912C21.3203 21.9912 26.6212 23.6706 28.8946 26.024C29.658 24.2931 30.0473 22.4206 30.037 20.5289C30.037 12.7147 23.3424 6.27148 15.0941 6.27148C6.84583 6.27148 0.174084 12.7262 0.174084 20.5289C0.162396 22.4207 0.551757 24.2936 1.31651 26.024C3.64705 23.6706 8.94789 21.9912 15.1284 21.9912Z" fill="#008ED2"/>
<path d="M15.1269 22.0142C21.3075 22.0142 26.5512 23.6707 28.836 26.0127C29.6007 24.2943 29.9902 22.4327 29.9784 20.5519C29.9784 12.8063 23.3067 6.40869 15.1269 6.40869C6.94719 6.40869 0.275437 12.8177 0.275437 20.5633C0.270524 22.4397 0.659731 24.2962 1.41786 26.0127C3.67986 23.6707 8.96928 22.0142 15.1269 22.0142Z" fill="#008FD3"/>
<path d="M15.1269 22.0259C21.2846 22.0259 26.5512 23.671 28.836 25.9901C29.6005 24.2919 29.9901 22.4489 29.9785 20.5865C29.9785 12.9094 23.3181 6.53467 15.1269 6.53467C6.93577 6.53467 0.275438 12.9094 0.275438 20.5865C0.270442 22.4482 0.659793 24.2898 1.41786 25.9901C3.70271 23.671 8.98071 22.0259 15.1269 22.0259Z" fill="#0091D4"/>
<path d="M15.1294 22.0486C21.2642 22.0486 26.5536 23.6708 28.7813 25.9785C29.5447 24.292 29.9345 22.4604 29.9238 20.6091C29.9238 13.0006 23.2863 6.66016 15.0723 6.66016C6.85823 6.66016 0.220751 13.0006 0.220751 20.6091C0.215741 22.4598 0.605199 24.2902 1.36317 25.9785C3.73942 23.6708 8.99459 22.0486 15.1294 22.0486Z" fill="#0093D5"/>
<path d="M15.1262 22.0598C21.2495 22.0598 26.4933 23.6707 28.7438 25.9555C29.5016 24.2873 29.8912 22.4755 29.8863 20.6432C29.8863 13.0918 23.2602 6.78564 15.1033 6.78564C6.94638 6.78564 0.32036 13.1033 0.32036 20.6432C0.315376 22.4755 0.705016 24.2873 1.46278 25.9555C3.75905 23.6707 9.00277 22.0598 15.1262 22.0598Z" fill="#0095D7"/>
<path d="M15.1159 22.0713C21.2279 22.0713 26.4602 23.6707 28.6994 25.9327C29.4625 24.2824 29.8526 22.4843 29.8418 20.6661C29.8418 13.1832 23.2386 6.95703 15.0931 6.95703C6.9476 6.95703 0.367226 13.2404 0.367226 20.6661C0.362707 22.4836 0.752476 24.2805 1.50965 25.9327C3.7945 23.6707 9.0268 22.0713 15.1159 22.0713Z" fill="#0097D8"/>
<path d="M15.1151 22.0945C21.2157 22.0945 26.4251 23.6711 28.6643 25.9217C29.4209 24.2854 29.8108 22.5035 29.8067 20.7008C29.8067 13.2865 23.2263 6.9917 15.1037 6.9917C6.98106 6.9917 0.412141 13.2408 0.412141 20.7008C0.408044 22.5035 0.797948 24.2854 1.55456 25.9217C3.81656 23.6711 9.03743 22.0945 15.1151 22.0945Z" fill="#0099D9"/>
<path d="M15.116 22.1055C21.1937 22.1055 26.3918 23.682 28.6309 25.8983C29.3885 24.2785 29.7786 22.5113 29.7733 20.7232C29.7733 13.3774 23.2044 7.1626 15.1046 7.1626C7.00481 7.1626 0.447317 13.3774 0.447317 20.7232C0.442095 22.5113 0.832209 24.2785 1.58974 25.8983C3.85174 23.682 9.04976 22.1055 15.116 22.1055Z" fill="#009BDA"/>
<path d="M15.1149 22.1286C21.1698 22.1286 26.3678 23.6824 28.5841 25.8872C29.3403 24.2791 29.7305 22.5233 29.7265 20.7463C29.7265 13.4691 23.1804 7.28857 15.1035 7.28857C7.02655 7.28857 0.480482 13.4691 0.480482 20.7578C0.477849 22.531 0.868001 24.2827 1.62291 25.8872C3.87348 23.6824 9.06008 22.1286 15.1149 22.1286Z" fill="#009DDC"/>
<path d="M15.118 22.1399C21.1615 22.1399 26.3366 23.6822 28.5529 25.8642C29.3089 24.2763 29.6993 22.5391 29.6954 20.7804C29.6954 13.5603 23.1607 7.41406 15.1066 7.41406C7.05251 7.41406 0.529297 13.5717 0.529297 20.7804C0.530386 22.5385 0.920521 24.2746 1.67172 25.8642C3.91087 23.6822 9.08604 22.1399 15.118 22.1399Z" fill="#009FDD"/>
<path d="M15.1172 22.1516C21.1378 22.1516 26.3016 23.6825 28.5179 25.8417C29.2753 24.2705 29.666 22.5478 29.6603 20.8036C29.6603 13.6634 23.1485 7.54004 15.1172 7.54004C7.08601 7.54004 0.574219 13.6634 0.574219 20.8036C0.574062 22.5472 0.964424 24.2687 1.71664 25.8417C3.93294 23.6825 9.09668 22.1516 15.1172 22.1516Z" fill="#00A1DE"/>
<path d="M15.1064 22.1741C21.127 22.1741 26.2679 23.6821 28.4728 25.8299C29.2265 24.2737 29.6171 22.5666 29.6152 20.8375C29.6152 13.7545 23.1148 7.67676 15.095 7.67676C7.0752 7.67676 0.597656 13.7545 0.597656 20.8375C0.600064 22.5662 0.990469 24.2722 1.74008 25.8299C3.95638 23.6821 9.10869 22.1741 15.1064 22.1741Z" fill="#00A3DF"/>
<path d="M15.1056 22.1858C21.1034 22.1858 26.2329 23.6824 28.4377 25.8073C29.1935 24.2681 29.5844 22.5754 29.5802 20.8606C29.5802 13.8461 23.1026 7.80273 15.1056 7.80273C7.10866 7.80273 0.642578 13.8461 0.642578 20.8606C0.643998 22.5747 1.03463 24.2662 1.785 25.8073C3.98988 23.6824 9.13076 22.1858 15.1056 22.1858Z" fill="#00A5E1"/>
<path d="M15.1046 22.2085C21.0794 22.2085 26.2089 23.6823 28.4024 25.7957C29.1517 24.2705 29.5425 22.5941 29.5448 20.8947C29.5448 13.9374 23.0787 7.92822 15.1046 7.92822C7.13045 7.92822 0.675781 13.9488 0.675781 20.8947C0.678133 22.5941 1.06889 24.2705 1.8182 25.7957C4.01166 23.6823 9.14111 22.2085 15.1046 22.2085Z" fill="#00A7E2"/>
<path d="M15.106 22.2198C21.0695 22.2198 26.1762 23.6935 28.3696 25.7727C29.1187 24.2636 29.5096 22.6021 29.512 20.9174C29.512 14.0628 23.0688 8.05371 15.1175 8.05371C7.16622 8.05371 0.734375 14.04 0.734375 20.9174C0.736803 22.6021 1.12774 24.2636 1.8768 25.7727C4.0474 23.7506 9.15402 22.2198 15.106 22.2198Z" fill="#00A9E3"/>
<path d="M15.105 22.2315C21.0456 22.2315 26.1408 23.6938 28.3228 25.7502C29.0719 24.2615 29.4631 22.6185 29.4653 20.952C29.4653 14.0974 23.0448 8.17969 15.1164 8.17969C7.188 8.17969 0.767578 14.1317 0.767578 20.952C0.769695 22.6185 1.16089 24.2615 1.91 25.7502C4.06918 23.7509 9.16438 22.2315 15.105 22.2315Z" fill="#00ABE5"/>
<path d="M15.1059 22.2542C21.035 22.2542 26.1074 23.6936 28.2894 25.7385C29.0382 24.262 29.4295 22.6302 29.4319 20.9746C29.4319 14.2229 23.0229 8.30518 15.1173 8.30518C7.21173 8.30518 0.802734 14.2229 0.802734 20.9746C0.805118 22.6302 1.19644 24.262 1.94516 25.7385C4.10434 23.7507 9.18811 22.2542 15.1059 22.2542Z" fill="#00ADE6"/>
<path d="M15.0937 22.2658C21.0114 22.2658 26.0838 23.6938 28.2544 25.6931C28.9982 24.231 29.3894 22.6152 29.3968 20.9749C29.3968 14.2917 23.0107 8.4082 15.1165 8.4082C7.22237 8.4082 0.847656 14.3031 0.847656 20.9749C0.855481 22.6151 1.2467 24.2309 1.99008 25.6931C4.12641 23.751 9.19877 22.2658 15.0937 22.2658Z" fill="#00AFE7"/>
<path d="M15.0943 22.2887C21.0006 22.2887 26.0501 23.6939 28.2093 25.7159C28.9574 24.276 29.3492 22.6776 29.3517 21.0549C29.3517 14.4402 22.977 8.57959 15.1057 8.57959C7.23438 8.57959 0.871094 14.4402 0.871094 21.0549C0.878899 22.6769 1.27037 24.2741 2.01352 25.7159C4.16127 23.751 9.26792 22.2887 15.0943 22.2887Z" fill="#00B2E9"/>
<path d="M15.0918 22.3C20.9753 22.3 26.0134 23.6938 28.1726 25.7273C28.9158 24.2978 29.3074 22.7116 29.315 21.1005C29.315 14.5544 22.9631 8.72803 15.1147 8.72803C7.26621 8.72803 0.925781 14.5544 0.925781 21.1005C0.933345 22.7116 1.32498 24.2978 2.0682 25.7273C4.18169 23.7509 9.26547 22.3 15.0918 22.3Z" fill="#00B4EA"/>
<path d="M15.0947 22.3115C20.9553 22.3115 25.9819 23.6939 28.1411 25.6589C28.8826 24.2492 29.2744 22.6819 29.2835 21.0892C29.2835 14.6002 22.9431 8.80811 15.1175 8.80811C7.2919 8.80811 0.962891 14.6002 0.962891 21.0892C0.972038 22.6819 1.36385 24.2492 2.10531 25.6589C4.2188 23.751 9.2683 22.3115 15.0947 22.3115Z" fill="#00B6EB"/>
<path d="M15.0916 22.3341C20.9409 22.3341 25.9447 23.705 28.0924 25.6471C28.8447 24.2416 29.2372 22.6716 29.2349 21.0774C29.2349 14.657 22.9058 8.91064 15.1145 8.91064C7.32315 8.91064 0.994141 14.6228 0.994141 21.0774C0.997394 22.671 1.38955 24.2396 2.13656 25.6471C4.23862 23.7507 9.26528 22.3341 15.0916 22.3341Z" fill="#00B8ED"/>
<path d="M15.083 22.3458C20.9208 22.3458 25.9247 23.7053 28.061 25.6245C28.8023 24.2476 29.1945 22.71 29.2034 21.1462C29.2034 14.7944 22.8858 9.0708 15.1059 9.0708C7.32598 9.0708 1.03125 14.7829 1.03125 21.1462C1.04015 22.71 1.43241 24.2476 2.17367 25.6245C4.26431 23.751 9.26811 22.3458 15.083 22.3458Z" fill="#01BBEE"/>
<path d="M15.0806 22.3684C20.907 22.3684 25.888 23.7051 28.0243 25.6015C28.7654 24.241 29.1578 22.7181 29.1667 21.1689C29.1667 14.8855 22.872 9.19629 15.1149 9.19629C7.35784 9.19629 1.08594 14.9084 1.08594 21.1689C1.09482 22.7181 1.48732 24.241 2.22836 25.6015C4.29615 23.7507 9.26569 22.3684 15.0806 22.3684Z" fill="#11BDF0"/>
<path d="M15.0815 22.3802C20.885 22.3802 25.8546 23.7054 27.9795 25.5904C28.719 24.2458 29.1117 22.738 29.1219 21.2035C29.1219 14.9773 22.85 9.32227 15.1158 9.32227C7.38158 9.32227 1.12109 14.9773 1.12109 21.1921C1.12992 22.7304 1.52259 24.2422 2.26352 25.5904C4.31988 23.7511 9.26658 22.3802 15.0815 22.3802Z" fill="#1AC0F1"/>
<path d="M15.0843 22.3914C20.865 22.3914 25.8231 23.7052 27.948 25.5673C28.6875 24.2392 29.0804 22.7462 29.0905 21.2261C29.0905 15.0685 22.83 9.44775 15.1186 9.44775C7.40726 9.44775 1.1582 15.0685 1.1582 21.2261C1.16682 22.7464 1.55981 24.2398 2.30063 25.5673C4.35699 23.7509 9.26941 22.3914 15.0843 22.3914Z" fill="#1FC4F4"/>
<path d="M15.083 22.4371C20.8636 22.4371 25.8103 23.7395 27.9238 25.5902C28.6632 24.2703 29.0562 22.7847 29.0662 21.2719C29.0662 15.1599 22.8172 9.56201 15.1172 9.56201C7.4173 9.56201 1.17969 15.1599 1.17969 21.2719C1.19745 22.7836 1.58998 24.2674 2.32211 25.5902C4.36705 23.7509 9.26803 22.4371 15.083 22.4371Z" fill="#32C5F4"/>
<path d="M15.0813 22.4714C20.8506 22.4714 25.7973 23.7624 27.9108 25.6017C28.6446 24.2919 29.0374 22.8188 29.0532 21.3176C29.0532 15.2399 22.8155 9.67627 15.1156 9.67627C7.41566 9.67627 1.18945 15.2399 1.18945 21.3176C1.2052 22.8188 1.59804 24.2919 2.33188 25.6017C4.37681 23.7509 9.32351 22.4714 15.0813 22.4714Z" fill="#3FC7F4"/>
<path d="M15.0819 22.5055C20.794 22.5055 25.7864 23.785 27.8885 25.6129C28.6269 24.3175 29.0203 22.8541 29.0309 21.3631C29.0309 15.3197 22.8047 9.80176 15.1162 9.80176C7.42766 9.80176 1.21289 15.3197 1.21289 21.3631C1.22848 22.8535 1.62152 24.3156 2.35531 25.6129C4.40025 23.7507 9.3355 22.5055 15.0819 22.5055Z" fill="#4AC8F5"/>
<path d="M15.0828 22.5398C20.7949 22.5398 25.7645 23.8193 27.8779 25.6357C28.6103 24.3461 29.0034 22.8918 29.0204 21.4088C29.0204 15.4111 22.8056 9.91602 15.1285 9.91602C7.4514 9.91602 1.24805 15.4111 1.24805 21.3974C1.26357 22.8841 1.65668 24.3426 2.39047 25.6357C4.41256 23.8193 9.34781 22.5398 15.0828 22.5398Z" fill="#54CAF5"/>
<path d="M15.0834 22.6084C20.7955 22.6084 25.7536 23.8765 27.8557 25.6816C28.5943 24.4028 28.9879 22.9541 28.9981 21.4775C28.9981 15.5254 22.7833 10.0532 15.1177 10.0532C7.45199 10.0532 1.27148 15.4911 1.27148 21.466C1.29229 22.9412 1.68524 24.3873 2.41391 25.6701C4.42457 23.8423 9.34841 22.6084 15.0834 22.6084Z" fill="#5CCCF5"/>
<path d="M15.0834 22.6084C20.7955 22.6084 25.7422 23.8765 27.8443 25.6701C28.5762 24.3969 28.9695 22.9573 28.9867 21.4888C28.9867 15.571 22.7833 10.1445 15.1291 10.1445C7.47485 10.1445 1.27148 15.571 1.27148 21.466C1.28865 22.9344 1.68198 24.374 2.41391 25.6472C4.436 23.8765 9.35984 22.6084 15.0834 22.6084Z" fill="#64CDF6"/>
<path d="M15.0823 22.6087C20.7944 22.6087 25.7297 23.8539 27.8203 25.6361C28.5523 24.3754 28.9459 22.9468 28.9627 21.4891C28.9627 15.617 22.7708 10.2134 15.128 10.2134C7.48521 10.2134 1.30469 15.617 1.30469 21.4891C1.30773 22.9413 1.68129 24.3686 2.39 25.6361C4.44637 23.8996 9.37019 22.6087 15.0823 22.6087Z" fill="#6CCFF6"/>
<path d="M15.0834 22.6882C20.7955 22.6882 25.7079 23.9334 27.81 25.6928C28.5416 24.4444 28.9354 23.0269 28.9524 21.58C28.9524 15.7423 22.7605 10.3843 15.1291 10.3843C7.4977 10.3843 1.27148 15.7537 1.27148 21.58C1.28697 23.0271 1.68082 24.445 2.41391 25.6928C4.47027 23.9334 9.37126 22.6882 15.0834 22.6882Z" fill="#73D1F6"/>
<path d="M15.0834 22.723C20.7955 22.723 25.6965 23.9568 27.7871 25.7161C28.5183 24.4759 28.9122 23.0659 28.9295 21.6263C28.9295 15.8227 22.7491 10.499 15.1291 10.499C7.50912 10.499 1.27148 15.8227 1.27148 21.6263C1.28882 23.0659 1.68268 24.4759 2.41391 25.7161C4.48169 23.9568 9.38269 22.723 15.0834 22.723Z" fill="#7AD2F7"/>
<path d="M15.0821 22.7568C20.7942 22.7568 25.6838 23.9906 27.7745 25.7271C28.481 24.4918 28.8549 23.0944 28.8598 21.6714C28.8598 15.9593 22.6907 10.6128 15.0821 10.6128C7.47359 10.6128 1.37305 15.9136 1.37305 21.6714C1.37792 23.0944 1.75188 24.4918 2.45836 25.7271C4.49188 23.9906 9.39286 22.7568 15.0821 22.7568Z" fill="#81D4F7"/>
<path d="M15.0813 22.791C20.7935 22.791 25.6716 24.0134 27.7508 25.7385C28.4814 24.523 28.8757 23.1352 28.8932 21.7172C28.8932 16.005 22.7242 10.7271 15.1271 10.7271C7.52993 10.7271 1.41797 15.9936 1.41797 21.7057C1.43526 23.131 1.82941 24.5263 2.56039 25.7499C4.50251 24.0134 9.39208 22.791 15.0813 22.791Z" fill="#88D6F8"/>
<path d="M15.083 22.8368C20.7951 22.8368 25.6505 24.0477 27.7411 25.7614C28.4473 24.5426 28.8215 23.16 28.8264 21.7514C28.8264 16.0393 22.6687 10.8413 15.1173 10.8413C7.56587 10.8413 1.4082 16.0736 1.4082 21.7514C1.41311 23.16 1.78734 24.5426 2.49352 25.7614C4.52703 24.0477 9.40517 22.8368 15.083 22.8368Z" fill="#8ED8F8"/>
<path d="M15.0819 22.8714C20.7941 22.8714 25.6379 24.0138 27.7171 25.7731C28.443 24.5723 28.8373 23.2004 28.8596 21.7975C28.8596 16.1653 22.7133 10.9673 15.1505 10.9673C7.58765 10.9673 1.44141 16.1653 1.44141 21.7975C1.45817 23.2012 1.85281 24.5746 2.58383 25.7731C4.53737 24.0709 9.41552 22.8714 15.0819 22.8714Z" fill="#94DAF8"/>
<path d="M15.0821 22.9051C20.7942 22.9051 25.6267 24.0476 27.6488 25.7955C28.3774 24.6043 28.772 23.2389 28.7912 21.8427C28.7912 16.2448 22.645 11.0811 15.0821 11.0811C7.51929 11.0811 1.37305 16.2448 1.37305 21.8427C1.37991 23.2329 1.75435 24.5966 2.45836 25.7955C4.549 24.0933 9.41571 22.9051 15.0821 22.9051Z" fill="#9BDCF9"/>
<path d="M15.0826 22.9399C20.7947 22.9399 25.6157 24.0823 27.6493 25.8074C28.353 24.6209 28.7277 23.2683 28.7346 21.8889C28.7346 16.3253 22.5998 11.1958 15.0255 11.1958C7.45122 11.1958 1.31641 16.3367 1.31641 21.8889C1.32332 23.2683 1.69794 24.6209 2.40169 25.8074C4.56087 24.128 9.4276 22.9399 15.0826 22.9399Z" fill="#A1DDF9"/>
<path d="M15.0826 22.9737C20.7947 22.9737 25.5929 24.1162 27.6493 25.8184C28.3528 24.6444 28.7277 23.3028 28.7346 21.9341C28.7346 16.4162 22.6112 11.3096 15.0255 11.3096C7.4398 11.3096 1.31641 16.4162 1.31641 21.9341C1.32462 23.3062 1.69929 24.6511 2.40169 25.8298C4.58372 24.1504 9.43902 22.9737 15.0826 22.9737Z" fill="#A7DFF9"/>
<path d="M15.0819 23.0085C20.7941 23.0085 25.5808 24.1509 27.6486 25.8417C28.3709 24.6812 28.7656 23.347 28.791 21.9803C28.791 16.4967 22.6791 11.4243 15.0819 11.4243C7.48483 11.4243 1.44141 16.4967 1.44141 21.9803C1.46568 23.3471 1.86053 24.6817 2.58383 25.8417C4.5945 24.1852 9.43837 23.0199 15.0819 23.0085Z" fill="#ADE1FA"/>
<path d="M15.0812 23.054C20.7247 23.054 25.5686 24.1964 27.6478 25.8529C28.3509 24.6997 28.7262 23.3765 28.7331 22.0258C28.7331 16.5764 22.6326 11.5498 15.104 11.5498C7.57543 11.5498 1.48633 16.5879 1.48633 22.0144C1.48778 23.3679 1.85912 24.6952 2.56021 25.8529C4.60515 24.2078 9.44901 23.054 15.0812 23.054Z" fill="#B3E3FA"/>
<path d="M15.0818 23.0883C20.7139 23.0883 25.5578 24.2307 27.6484 25.8644C28.3474 24.7225 28.7189 23.4104 28.7223 22.0715C28.7223 16.6679 22.6332 11.6641 15.116 11.6641C7.59889 11.6641 1.50977 16.6679 1.50977 22.0601C1.51708 23.4071 1.89238 24.7265 2.59508 25.8758C4.61717 24.2421 9.46104 23.0883 15.0818 23.0883Z" fill="#B8E5FA"/>
<path d="M15.081 23.1223C20.7131 23.1223 25.5342 24.2647 27.6476 25.887C28.3503 24.7503 28.7258 23.4418 28.733 22.1055C28.733 16.7476 22.6438 11.8237 15.1381 11.8237C7.6324 11.8237 1.55469 16.7933 1.55469 22.1055C1.56363 23.44 1.9348 24.747 2.62857 25.887C4.69635 24.2647 9.46025 23.1223 15.081 23.1223Z" fill="#BEE7FB"/>
<path d="M15.082 23.1568C20.7028 23.1568 25.5238 24.2992 27.5802 25.8986C28.2738 24.7711 28.6452 23.4752 28.654 22.1514C28.654 16.8277 22.5763 11.8696 15.082 11.8696C7.58775 11.8696 1.52148 16.8163 1.52148 22.1514C1.52497 23.4759 1.89679 24.7733 2.59537 25.8986C4.69742 24.2992 9.47275 23.1568 15.082 23.1568Z" fill="#C4E9FB"/>
<path d="M15.0804 23.1912C20.6897 23.1912 25.5107 24.3336 27.5557 25.9215C28.2529 24.8041 28.6248 23.5144 28.6295 22.1973C28.6295 16.9193 22.5632 12.0068 15.0804 12.0068C7.5975 12.0068 1.53125 16.9193 1.53125 22.1973C1.5419 23.5135 1.91333 24.8017 2.60513 25.9215C4.69577 24.3222 9.4825 23.2026 15.0804 23.1912Z" fill="#CAEBFC"/>
<path d="M15.081 23.2369C20.6903 23.2369 25.4999 24.3793 27.5448 25.933C28.2366 24.8257 28.6082 23.5485 28.6187 22.243C28.6187 16.9992 22.5524 12.1211 15.081 12.1211C7.60953 12.1211 1.55469 16.9992 1.55469 22.243C1.56515 23.5485 1.93684 24.8257 2.62857 25.933C4.69635 24.3564 9.4831 23.2369 15.081 23.2369Z" fill="#CFEDFC"/>
<path d="M15.0816 23.271C20.6795 23.271 25.4777 24.4134 27.5226 25.9443C28.2138 24.8493 28.5857 23.5833 28.5965 22.2885C28.5965 17.079 22.5416 12.2466 15.0816 12.2466C7.62155 12.2466 1.57812 17.0905 1.57812 22.2885C1.58639 23.5856 1.95419 24.855 2.64061 25.9557C4.69697 24.3791 9.49513 23.271 15.0816 23.271Z" fill="#D5EFFC"/>
<path d="M15.0819 23.3052C20.6683 23.3052 25.4665 24.4477 27.5114 25.9671C28.1995 24.8799 28.5677 23.6209 28.5739 22.3342C28.5739 17.1705 22.5305 12.3608 15.0819 12.3608C7.63326 12.3608 1.58984 17.1705 1.58984 22.3342C1.59942 23.622 1.9716 24.8811 2.66372 25.9671C4.69724 24.402 9.50684 23.3052 15.0819 23.3052Z" fill="#DAF1FD"/>
<path d="M15.0825 23.3396C20.6689 23.3396 25.4557 24.482 27.4892 25.9786C28.1797 24.9044 28.552 23.6568 28.5631 22.3799C28.5631 17.2504 22.5196 12.4751 15.0825 12.4751C7.64529 12.4751 1.61328 17.2504 1.61328 22.3685C1.61877 23.6481 1.98722 24.8999 2.67576 25.9786C4.69785 24.4363 9.51886 23.3396 15.0825 23.3396Z" fill="#E0F3FD"/>
<path d="M15.083 23.3738C20.6581 23.3738 25.4334 24.4591 27.4783 26.0014C28.1583 24.9273 28.5261 23.6853 28.5408 22.4142C28.5408 17.3418 22.5088 12.5894 15.083 12.5894C7.65728 12.5894 1.63672 17.3418 1.63672 22.4142C1.64403 23.6864 2.01246 24.9304 2.69916 26.0014C4.69841 24.4591 9.51943 23.3853 15.083 23.3738Z" fill="#E6F5FD"/>
<path d="M15.0814 23.4196C20.645 23.4196 25.4203 24.4935 27.4539 26.0129C28.1401 24.9544 28.5088 23.7214 28.5163 22.4599C28.5163 17.4218 22.4957 12.7036 15.0814 12.7036C7.66707 12.7036 1.64648 17.4218 1.64648 22.4599C1.65901 23.7206 2.02732 24.9522 2.70896 26.0129C4.7539 24.4935 9.52922 23.4196 15.0814 23.4196Z" fill="#EBF7FE"/>
<path d="M15.08 23.4536C20.6436 23.4536 25.3618 24.5161 27.4296 26.0241C28.1189 24.9791 28.4918 23.7573 28.5035 22.5054C28.5035 17.5016 22.4829 12.8291 15.08 12.8291C7.67711 12.8291 1.66797 17.5016 1.66797 22.5054C1.67663 23.7596 2.0454 24.9849 2.73041 26.0355C4.76393 24.5161 9.53926 23.4536 15.08 23.4536Z" fill="#F1FAFE"/>
<path d="M15.0845 23.4879C20.6367 23.4879 25.3664 24.5504 27.4227 26.047C28.1021 25.0064 28.4706 23.7937 28.4852 22.5511C28.4852 17.593 22.476 12.9434 15.0845 12.9434C7.69304 12.9434 1.69531 17.593 1.69531 22.5511C1.70583 23.7927 2.07047 25.0055 2.74636 26.047C4.77987 24.5504 9.54376 23.4879 15.0845 23.4879Z" fill="#F7FCFE"/>
<path d="M15.0828 23.5221C20.6236 23.5221 25.3647 24.5731 27.3982 26.0583C28.0755 25.0423 28.4445 23.852 28.4606 22.631C28.4606 17.7072 22.4629 13.0918 15.0828 13.0918C7.70279 13.0918 1.70508 17.6615 1.70508 22.631C1.72119 23.852 2.09016 25.0423 2.76752 26.0583C4.78961 24.5731 9.55352 23.5221 15.0828 23.5221Z" fill="white"/>
</g>
<path d="M14.9778 18.6099C10.5283 18.5704 6.10717 19.3208 1.91992 20.8262C3.04324 23.3513 4.87458 25.4965 7.19216 27.0021C9.50974 28.5076 12.2141 29.3089 14.9778 29.3089C17.7415 29.3089 20.4459 28.5076 22.7635 27.0021C25.0811 25.4965 26.9124 23.3513 28.0357 20.8262C23.8485 19.3208 19.4273 18.5704 14.9778 18.6099Z" fill="#0083CA"/>
</svg>
