<svg width="28" height="14" viewBox="0 0 28 14" fill="none" xmlns="http://www.w3.org/2000/svg">
<g clip-path="url(#clip0_3891_13942)">
<path d="M0.0388018 6.95422C0.0279724 6.95767 0.018458 6.96436 0.0115346 6.97337C0.00461118 6.98239 0.000608385 6.99331 6.39752e-05 7.00466C-0.000480435 7.01602 0.00246009 7.02727 0.00848913 7.03691C0.0145182 7.04654 0.0233484 7.05411 0.0337973 7.05859L4.35364 9.91155L5.59105 4.08838L0.0388018 6.95422Z" fill="#E72410"/>
<path d="M25.6166 4.0874H24.5243C24.4567 4.09009 24.3904 4.10613 24.3291 4.13458L18.8541 6.9561C18.8431 6.95929 18.8335 6.9658 18.8264 6.97472C18.8193 6.98364 18.8152 6.99453 18.8145 7.0059C18.8139 7.01728 18.8168 7.02856 18.8229 7.0382C18.8289 7.04785 18.8378 7.05538 18.8483 7.05975L23.1003 9.85411C23.1577 9.88867 23.2228 9.90832 23.2897 9.91129H24.3813C24.4378 9.91129 24.4456 9.88556 24.3992 9.85482L20.0636 7.00185L25.628 4.1353C25.678 4.10885 25.6737 4.0874 25.6166 4.0874Z" fill="#F08300"/>
<path d="M23.2774 4.0874H15.6664L14.4297 9.91273H22.0393C22.0958 9.91273 22.1036 9.88699 22.0564 9.85554L17.728 7.00328L23.2888 4.1353C23.3389 4.10885 23.3339 4.0874 23.2774 4.0874Z" fill="#E72410"/>
<path d="M27.9537 4.0874H26.8622C26.7946 4.09 26.7283 4.10604 26.667 4.13458L21.192 6.9561C21.181 6.95929 21.1714 6.9658 21.1643 6.97472C21.1572 6.98364 21.1531 6.99453 21.1524 7.0059C21.1518 7.01728 21.1547 7.02856 21.1608 7.0382C21.1668 7.04785 21.1757 7.05538 21.1862 7.05975L25.4339 9.85411C25.4913 9.88858 25.5564 9.90823 25.6233 9.91129H26.7156C26.7721 9.91129 26.7799 9.88556 26.7328 9.85482L22.3972 7.00185L27.9623 4.1353C28.0159 4.10885 28.0109 4.0874 27.9537 4.0874Z" fill="#FABE00"/>
<path d="M22.9402 0.275391H5.02457C4.02378 0.275391 3.32465 0.905175 3.15952 1.68293C3.11573 1.88038 3.13026 2.0863 3.20132 2.27565C3.27239 2.465 3.39695 2.62961 3.55984 2.74949L9.99707 6.99928H10.0021L22.9516 0.323286C23.0024 0.297551 22.9974 0.275391 22.9402 0.275391Z" fill="#E72410"/>
<path d="M20.0988 13.6674L10.003 7H9.99871L1.75291 11.2512C1.31399 11.51 0.990875 11.8903 0.900088 12.3178C0.733528 13.0934 1.1653 13.7239 2.16609 13.7239H20.0817C20.1389 13.7239 20.146 13.6989 20.0988 13.6674Z" fill="#E72410"/>
</g>
<defs>
<clipPath id="clip0_3891_13942">
<rect width="28" height="13.4478" fill="white" transform="translate(0 0.275879)"/>
</clipPath>
</defs>
</svg>
