<svg width="30" height="30" viewBox="0 0 30 30" fill="none" xmlns="http://www.w3.org/2000/svg">
<mask id="mask0_3891_15127" style="mask-type:luminance" maskUnits="userSpaceOnUse" x="0" y="0" width="30" height="30">
<path d="M11.6144 27.715C9.95988 27.5522 7.98254 27.0315 6.25781 25.5368C4.6706 24.1712 3.68965 22.2891 3.2125 20.6287C2.72554 18.9333 2.52065 16.9557 3.32618 17.1129C3.57457 17.1578 4.004 18.2484 4.46852 19.0399C4.94987 19.8568 5.34001 20.3115 5.70488 20.5894C5.87188 20.7143 6.43744 19.4582 7.26121 18.741C7.73976 18.3424 8.2576 18.2091 8.35022 19.3894C8.44845 20.8322 8.18884 22.5515 8.61265 22.5515C8.99998 22.5515 9.89252 22.2554 11.8446 22.0884C12.5814 22.0266 13.0024 22.1656 12.3007 23.1494C11.9499 23.6434 11.4839 24.3382 10.3753 25.1368C12.0355 26.6919 14.0254 26.5024 14.0633 27.1634C14.0858 27.5452 13.3434 27.7557 12.3695 27.7557C12.1295 27.7557 11.8755 27.7417 11.6144 27.7136M17.2012 13.7417C15.6814 13.4245 15.3699 12.0449 15.3699 12.0449C15.245 11.5579 15.2155 10.9431 15.3179 10.1586C15.5228 8.51927 15.9663 7.75296 16.4687 6.48139C17.1465 4.77613 15.5018 3.77823 15.7698 3.15367C16.1417 2.30596 17.3149 3.38385 18.6299 3.46385C19.7596 3.5242 20.4388 3.47087 21.3159 3.58876C22.4835 3.74174 23.8827 4.13894 24.5044 4.86876C25.0727 5.53823 24.1998 6.35086 23.1571 5.84279C22.3909 5.46946 21.4282 5.69683 21.9923 6.49542C22.6716 7.25331 22.9971 7.27436 23.6946 7.45542C25.6046 7.96068 25.6439 9.79366 24.3472 10.7368C22.8807 11.8147 21.3833 11.367 20.791 9.25611C20.4907 8.20068 19.7498 7.66594 18.9835 7.96629C18.2285 8.26384 18.6762 9.6505 19.2544 10.9375C20.2522 13.4877 18.2341 13.7558 17.4595 13.7558C17.3374 13.7558 17.2476 13.7501 17.2026 13.7445M16.1052 28.195C16.0926 27.8582 16.5852 27.7726 16.5852 27.7726C21.024 26.8968 19.7259 23.9859 18.1569 22.5024C17.4959 21.8806 11.3211 16.5487 11.3211 16.5487C5.43263 11.4765 5.90416 7.52138 5.90416 7.52138C6.19465 2.64841 10.4525 1.44 13.6802 1.7221C14.0577 1.75438 14.2696 1.98035 14.198 2.30034C14.1307 2.6442 13.6297 2.66666 13.6297 2.66666C12.6024 2.72701 11.6846 2.82947 10.9871 3.30245C8.38952 5.05262 9.15014 8.02664 12.6179 11.3389C13.0557 11.7529 13.5188 12.1951 13.9974 12.6428C13.9974 12.6428 14.6878 13.2561 16.0786 14.5726C18.7463 17.0287 20.2044 18.3522 20.2044 18.3522C24.9057 22.2666 23.2961 25.8469 21.504 27.0876C20.1315 28.0378 18.6158 28.4827 16.6245 28.5908L16.5739 28.5936C16.3929 28.5936 16.1178 28.4827 16.1066 28.195M14.3159 0.0154385C6.04449 0.388771 -0.359058 7.40349 0.0156401 15.6786C0.390338 23.9522 7.40436 30.3578 15.6772 29.9845C23.9472 29.6111 30.3578 22.5992 29.9845 14.3242C29.6224 6.27647 22.9831 0.0014035 15.005 0C14.7776 0 14.5475 0.00561397 14.3173 0.0154385" fill="white"/>
</mask>
<g mask="url(#mask0_3891_15127)">
<path d="M-0.353516 -0.000976562H30.3619V30.3568H-0.353516V-0.000976562Z" fill="#0046FF"/>
</g>
</svg>
