<svg width="50" height="12" viewBox="0 0 50 12" fill="none" xmlns="http://www.w3.org/2000/svg">
<path d="M10.5984 0H7.67414L3.05565 5.37568V0H0.720703V11.7278H3.05565V6.33844L7.82661 11.7278H10.7509L5.56019 5.86391L10.5984 0Z" fill="#140064"/>
<path d="M49.2788 11.7278L45.7721 7.67122L49.1743 3.61462H46.656L43.6907 7.12474V0H41.3574V11.7278H43.6907V8.20913L46.7125 11.7278H49.2788Z" fill="#140064"/>
<path d="M16.341 3.33196C15.3594 3.33196 14.5217 3.7551 13.833 4.33583V0H11.498V7.72433C11.498 10.0507 13.0398 11.9968 15.9315 11.9968C18.5337 11.9968 20.365 10.1997 20.365 7.6815C20.365 5.29688 18.789 3.33196 16.341 3.33196ZM15.9315 9.88625C15.354 9.8843 14.7999 9.65811 14.386 9.2554C13.9721 8.8527 13.7308 8.30496 13.7131 7.72775C13.7131 7.7072 13.7131 7.68664 13.7131 7.66608C13.7131 7.22562 13.8437 6.79505 14.0884 6.42882C14.3331 6.06259 14.6809 5.77714 15.0878 5.60858C15.4948 5.44003 15.9426 5.39592 16.3746 5.48185C16.8066 5.56778 17.2034 5.77989 17.5148 6.09134C17.8263 6.40279 18.0384 6.79961 18.1243 7.23161C18.2102 7.66361 18.1661 8.11139 17.9976 8.51832C17.829 8.92526 17.5436 9.27307 17.1774 9.51778C16.8111 9.76249 16.3806 9.8931 15.9401 9.8931L15.9315 9.88625Z" fill="#140064"/>
<path d="M36.868 3.33183C35.8723 3.31978 34.9095 3.6873 34.175 4.35968V3.58708H31.8418V11.726H34.175V7.16401C34.175 6.7074 34.3564 6.26949 34.6793 5.94662C35.0022 5.62375 35.4401 5.44236 35.8967 5.44236C36.3533 5.44236 36.7912 5.62375 37.1141 5.94662C37.437 6.26949 37.6183 6.7074 37.6183 7.16401V11.726H39.967V6.51304C39.967 6.48049 39.967 6.44966 39.967 6.41882C39.9607 5.59997 39.6318 4.81664 39.0516 4.23873C38.4715 3.66083 37.6869 3.33496 36.868 3.33183Z" fill="#140064"/>
<path d="M25.9541 3.33154C23.3228 3.33154 21.4727 5.12857 21.4727 7.64853C21.4727 10.0314 23.0658 11.9998 25.5412 11.9998C26.0804 11.9903 26.6104 11.8597 27.0923 11.6178C27.5741 11.3758 27.9954 11.0286 28.325 10.6019V11.7257H30.4373V7.65367H30.4184L30.4373 7.60742C30.4373 5.28275 28.8818 3.33154 25.9541 3.33154ZM26.0038 9.86698C25.5633 9.86698 25.1327 9.73637 24.7665 9.49166C24.4003 9.24696 24.1148 8.89914 23.9463 8.49221C23.7777 8.08527 23.7336 7.6375 23.8196 7.2055C23.9055 6.7735 24.1176 6.37668 24.429 6.06523C24.7405 5.75377 25.1373 5.54167 25.5693 5.45574C26.0013 5.36981 26.4491 5.41391 26.856 5.58247C27.263 5.75103 27.6108 6.03647 27.8555 6.4027C28.1002 6.76893 28.2308 7.1995 28.2308 7.63997C28.2313 7.93242 28.1741 8.2221 28.0626 8.49247C27.9511 8.76284 27.7874 9.00859 27.5809 9.21571C27.3745 9.42282 27.1292 9.58725 26.8592 9.69958C26.5892 9.81191 26.2997 9.86996 26.0072 9.87041L26.0038 9.86698Z" fill="#140064"/>
</svg>
