<svg width="34" height="30" viewBox="0 0 34 30" fill="none" xmlns="http://www.w3.org/2000/svg">
<path d="M22.074 17.7944C22.0009 17.3414 21.8713 16.8994 21.6884 16.4786C21.1654 15.2191 20.2541 14.1595 19.0871 13.4538C18.1723 12.9045 17.124 12.6175 16.057 12.6241C14.99 12.6308 13.9453 12.9309 13.0375 13.4917C12.1929 13.9993 11.5067 14.7326 11.0563 15.609C10.9075 15.9084 10.7836 16.2195 10.6857 16.5391C10.4089 17.3701 10.3023 18.2484 10.3725 19.1215C10.4427 19.9946 10.6881 20.8446 11.0941 21.6208C11.3728 22.0976 11.8006 22.4696 12.3115 22.6794C12.5648 22.7841 12.8392 22.8276 13.1124 22.8066C13.3857 22.7856 13.6501 22.7006 13.8844 22.5585C14.1461 22.3561 14.3418 22.0807 14.4468 21.767C14.5518 21.4534 14.5613 21.1156 14.4743 20.7965C14.2679 19.9873 14.2888 19.1369 14.5348 18.3389C14.6259 18.0783 14.773 17.8408 14.9658 17.6432C15.088 17.5256 15.2285 17.4286 15.3817 17.3558C15.7036 17.1925 16.0686 17.1343 16.4253 17.1895C16.7301 17.2556 17.015 17.3929 17.2568 17.59C17.4986 17.7871 17.6904 18.0385 17.8167 18.3238C18.0634 18.8998 18.192 19.5195 18.1948 20.1462C18.2047 22.9064 17.7968 25.6523 16.9848 28.2904C16.9168 28.5627 16.8412 28.8273 16.7655 29.092C16.6899 29.3567 16.5992 29.5608 16.7655 29.765C16.8283 29.8463 16.9119 29.909 17.0075 29.9465C17.4159 30.1129 17.7637 29.8633 18.0133 29.5911C19.5536 27.9447 20.6878 25.9612 21.3254 23.7986C21.5902 23.0043 21.8023 22.1934 21.9606 21.3712C22.2062 20.1871 22.2472 18.9697 22.0816 17.7717" fill="#008485"/>
<path d="M33.4865 5.23406C33.4828 5.13995 33.46 5.04758 33.4195 4.96254C33.379 4.8775 33.3216 4.80157 33.2509 4.73935C33.1802 4.67713 33.0976 4.62991 33.0081 4.60056C32.9186 4.57121 32.8241 4.56034 32.7303 4.5686C32.3402 4.62461 31.9621 4.7447 31.6111 4.92401C24.6012 7.58582 16.6989 8.09247 9.3109 7.02624C8.04806 6.84475 6.77008 6.59521 5.52992 6.39104C4.77373 6.27004 3.94947 6.08856 3.1479 6.02807C2.42655 5.88846 1.67914 6.03198 1.06081 6.42885C0.741519 6.77716 0.543267 7.21928 0.495576 7.68937C0.447885 8.15947 0.553308 8.63239 0.79614 9.03772C1.33733 9.9626 2.12204 10.7212 3.06473 11.2307C3.93537 11.851 4.96836 12.2032 6.03658 12.244C8.85719 12.0701 11.6778 11.7903 14.4833 11.4273C19.27 10.8072 24.3138 10.2174 28.7754 8.36471C30.2688 7.77586 31.6756 6.98728 32.9572 6.02051C33.184 5.84658 33.5167 5.55923 33.5167 5.26431" fill="#008485"/>
<path d="M13.3809 2.83031C13.4179 3.53637 13.7244 4.20131 14.2372 4.68799C14.7501 5.17468 15.4302 5.446 16.1372 5.446C16.8442 5.446 17.5243 5.17468 18.0371 4.68799C18.55 4.20131 18.8565 3.53637 18.8935 2.83031C18.8957 2.603 18.8466 2.37812 18.7499 2.17241C18.5154 1.66576 18.2432 1.41622 18.2734 0.826383C18.2734 0.0172526 17.2677 0.00213148 16.7081 0.00213148C16.0857 -0.0181163 15.4671 0.106121 14.9008 0.365102C14.4549 0.591847 14.0789 0.935187 13.8126 1.35861C13.5463 1.78204 13.3997 2.26973 13.3884 2.76981V2.83031" fill="#E90061"/>
</svg>
